<svg width="60" height="61" viewBox="0 0 60 61" fill="none" xmlns="http://www.w3.org/2000/svg">
<mask id="mask0_377_571" style="mask-type:alpha" maskUnits="userSpaceOnUse" x="0" y="0" width="60" height="61">
<rect y="0.5" width="60" height="60" fill="#D9D9D9"/>
</mask>
<g mask="url(#mask0_377_571)">
<path d="M30 55.5C26.875 55.5 23.9479 54.9062 21.2188 53.7188C18.4896 52.5312 16.1146 50.9271 14.0938 48.9062C12.0729 46.8854 10.4688 44.5104 9.28125 41.7812C8.09375 39.0521 7.5 36.125 7.5 33C7.5 29.875 8.09375 26.9479 9.28125 24.2188C10.4688 21.4896 12.0729 19.1146 14.0938 17.0938C16.1146 15.0729 18.4896 13.4688 21.2188 12.2812C23.9479 11.0938 26.875 10.5 30 10.5C33.125 10.5 36.0521 11.0938 38.7813 12.2812C41.5104 13.4688 43.8854 15.0729 45.9062 17.0938C47.9271 19.1146 49.5313 21.4896 50.7188 24.2188C51.9063 26.9479 52.5 29.875 52.5 33C52.5 36.125 51.9063 39.0521 50.7188 41.7812C49.5313 44.5104 47.9271 46.8854 45.9062 48.9062C43.8854 50.9271 41.5104 52.5312 38.7813 53.7188C36.0521 54.9062 33.125 55.5 30 55.5ZM37 43.5L40.5 40L32.5 32V20.5H27.5V34L37 43.5ZM14 6.375L17.5 9.875L6.875 20.5L3.375 17L14 6.375ZM46 6.375L56.625 17L53.125 20.5L42.5 9.875L46 6.375ZM30 50.5C34.875 50.5 39.0104 48.8021 42.4063 45.4062C45.8021 42.0104 47.5 37.875 47.5 33C47.5 28.125 45.8021 23.9896 42.4063 20.5938C39.0104 17.1979 34.875 15.5 30 15.5C25.125 15.5 20.9896 17.1979 17.5938 20.5938C14.1979 23.9896 12.5 28.125 12.5 33C12.5 37.875 14.1979 42.0104 17.5938 45.4062C20.9896 48.8021 25.125 50.5 30 50.5Z" fill="white"/>
</g>
</svg>
