<svg width="60" height="61" viewBox="0 0 60 61" fill="none" xmlns="http://www.w3.org/2000/svg">
<mask id="mask0_377_581" style="mask-type:alpha" maskUnits="userSpaceOnUse" x="0" y="0" width="60" height="61">
<rect y="0.5" width="60" height="60" fill="#D9D9D9"/>
</mask>
<g mask="url(#mask0_377_581)">
<path d="M21 43L30 34L39 43L42.5 39.5L33.5 30.5L42.5 21.5L39 18L30 27L21 18L17.5 21.5L26.5 30.5L17.5 39.5L21 43ZM30 55.5C26.5417 55.5 23.2917 54.8438 20.25 53.5312C17.2083 52.2188 14.5625 50.4375 12.3125 48.1875C10.0625 45.9375 8.28125 43.2917 6.96875 40.25C5.65625 37.2083 5 33.9583 5 30.5C5 27.0417 5.65625 23.7917 6.96875 20.75C8.28125 17.7083 10.0625 15.0625 12.3125 12.8125C14.5625 10.5625 17.2083 8.78125 20.25 7.46875C23.2917 6.15625 26.5417 5.5 30 5.5C33.4583 5.5 36.7083 6.15625 39.75 7.46875C42.7917 8.78125 45.4375 10.5625 47.6875 12.8125C49.9375 15.0625 51.7188 17.7083 53.0312 20.75C54.3438 23.7917 55 27.0417 55 30.5C55 33.9583 54.3438 37.2083 53.0312 40.25C51.7188 43.2917 49.9375 45.9375 47.6875 48.1875C45.4375 50.4375 42.7917 52.2188 39.75 53.5312C36.7083 54.8438 33.4583 55.5 30 55.5ZM30 50.5C35.5833 50.5 40.3125 48.5625 44.1875 44.6875C48.0625 40.8125 50 36.0833 50 30.5C50 24.9167 48.0625 20.1875 44.1875 16.3125C40.3125 12.4375 35.5833 10.5 30 10.5C24.4167 10.5 19.6875 12.4375 15.8125 16.3125C11.9375 20.1875 10 24.9167 10 30.5C10 36.0833 11.9375 40.8125 15.8125 44.6875C19.6875 48.5625 24.4167 50.5 30 50.5Z" fill="white"/>
</g>
</svg>
