<svg width="92" height="77" viewBox="0 0 92 77" fill="none" xmlns="http://www.w3.org/2000/svg">
<path d="M27.0833 0C30.6944 0 34.1319 0.763889 37.3958 2.29167C40.6597 3.81944 43.4722 5.97222 45.8333 8.75C48.1944 5.97222 51.0069 3.81944 54.2708 2.29167C57.5347 0.763889 60.9722 0 64.5833 0C71.1111 0 76.5625 2.1875 80.9375 6.5625C85.3125 10.9375 87.5 16.3889 87.5 22.9167C87.5 23.2639 87.4826 23.6111 87.4479 23.9583C87.4132 24.3056 87.3958 24.6528 87.3958 25H79.0625C79.1319 24.6528 79.1667 24.3056 79.1667 23.9583V22.9167C79.1667 18.75 77.7778 15.2778 75 12.5C72.2222 9.72222 68.75 8.33333 64.5833 8.33333C61.3194 8.33333 58.2986 9.25347 55.5208 11.0938C52.7431 12.934 50.8333 15.2778 49.7917 18.125H41.875C40.8333 15.2778 38.9236 12.934 36.1458 11.0938C33.3681 9.25347 30.3472 8.33333 27.0833 8.33333C22.9167 8.33333 19.4444 9.72222 16.6667 12.5C13.8889 15.2778 12.5 18.75 12.5 22.9167V23.9583C12.5 24.3056 12.5347 24.6528 12.6042 25H4.27083C4.27083 24.6528 4.25347 24.3056 4.21875 23.9583C4.18403 23.6111 4.16667 23.2639 4.16667 22.9167C4.16667 16.3889 6.35417 10.9375 10.7292 6.5625C15.1042 2.1875 20.5556 0 27.0833 0ZM17.9167 50H29.5833C31.8056 52.1528 34.2361 54.4792 36.875 56.9792C39.5139 59.4792 42.5 62.2222 45.8333 65.2083C49.1667 62.2222 52.1528 59.4792 54.7917 56.9792C57.4306 54.4792 59.8611 52.1528 62.0833 50H73.8542C71.2153 52.9167 68.0903 56.0764 64.4792 59.4792C60.8681 62.8819 56.6667 66.7361 51.875 71.0417L45.8333 76.4583L39.7917 71.0417C35 66.7361 30.816 62.8819 27.2396 59.4792C23.6632 56.0764 20.5556 52.9167 17.9167 50ZM41.875 54.1667C42.7778 54.1667 43.559 53.9062 44.2187 53.3854C44.8785 52.8646 45.3472 52.1875 45.625 51.3542L51.25 34.375L54.8958 39.7917C55.2431 40.3472 55.7292 40.7986 56.3542 41.1458C56.9792 41.4931 57.6389 41.6667 58.3333 41.6667H91.6667V33.3333H60.7292L53.5417 22.7083C53.125 22.0833 52.5868 21.6146 51.9271 21.3021C51.2674 20.9896 50.5556 20.8333 49.7917 20.8333C48.8889 20.8333 48.1076 21.0937 47.4479 21.6146C46.7882 22.1354 46.3194 22.8125 46.0417 23.6458L40.4167 40.5208L36.875 35.2083C36.5278 34.6528 36.0417 34.2014 35.4167 33.8542C34.7917 33.5069 34.1319 33.3333 33.4375 33.3333H0V41.6667H30.9375L38.125 52.2917C38.5417 52.9167 39.0799 53.3854 39.7396 53.6979C40.3993 54.0104 41.1111 54.1667 41.875 54.1667Z" fill="url(#paint0_linear_201_564)"/>
<defs>
<linearGradient id="paint0_linear_201_564" x1="45.8333" y1="0" x2="45.8333" y2="76.4583" gradientUnits="userSpaceOnUse">
<stop stop-color="#024A59"/>
<stop offset="0.9999" stop-color="#0396A6"/>
<stop offset="1" stop-color="#1C1B1F" stop-opacity="0"/>
</linearGradient>
</defs>
</svg>
