<svg width="100" height="100" viewBox="0 0 100 100" fill="none" xmlns="http://www.w3.org/2000/svg">
<mask id="mask0_201_559" style="mask-type:alpha" maskUnits="userSpaceOnUse" x="0" y="0" width="100" height="100">
<rect width="100" height="100" fill="#D9D9D9"/>
</mask>
<g mask="url(#mask0_201_559)">
<path d="M50.0003 89.5833C44.5142 89.5833 39.3753 88.5417 34.5837 86.4583C29.792 84.375 25.608 81.5451 22.0316 77.9688C18.4552 74.3924 15.6253 70.2083 13.542 65.4167C11.4587 60.625 10.417 55.4861 10.417 50C10.417 44.5139 11.4587 39.375 13.542 34.5833C15.6253 29.7917 18.4552 25.6076 22.0316 22.0313C25.608 18.4549 29.792 15.625 34.5837 13.5417C39.3753 11.4583 44.5142 10.4167 50.0003 10.4167V0L66.667 16.6667L50.0003 33.3333V22.9167C42.5003 22.9167 36.1114 25.5556 30.8337 30.8333C25.5559 36.1111 22.917 42.5 22.917 50C22.917 54.5833 23.976 58.8368 26.0941 62.7604C28.2121 66.684 31.042 69.8611 34.5837 72.2917C35.6948 70.3472 37.3441 68.6979 39.5316 67.3438C41.7191 65.9896 44.2364 65.1389 47.0837 64.7917C46.8753 63.3333 46.5975 61.875 46.2503 60.4167C45.9031 58.9583 45.4864 57.6042 45.0003 56.3542C44.2364 56.9792 43.4031 57.4653 42.5003 57.8125C41.5975 58.1597 40.6253 58.3333 39.5837 58.3333C37.292 58.3333 35.3302 57.5174 33.6982 55.8854C32.0663 54.2535 31.2503 52.2917 31.2503 50V45.8333C31.2503 44.6528 31.0594 43.5417 30.6774 42.5C30.2955 41.4583 29.792 40.4861 29.167 39.5833C32.6392 39.5139 35.7295 39.8264 38.4378 40.5208C40.7989 41.1458 42.9517 42.1701 44.8962 43.5938C46.8406 45.0174 47.8475 47.1528 47.917 50C47.917 50.625 47.8649 51.1979 47.7607 51.7188C47.6566 52.2396 47.4656 52.7778 47.1878 53.3333C46.285 52.6389 45.3823 52.0139 44.4795 51.4583C43.5767 50.9028 42.6392 50.4167 41.667 50C42.8475 50.9028 44.2017 52.2917 45.7295 54.1667C47.2573 56.0417 48.6809 58.2639 50.0003 60.8333C51.3892 57.4306 53.1253 54.0799 55.2087 50.7813C57.292 47.4826 59.7225 44.4444 62.5003 41.6667C60.9031 42.7778 59.3753 43.9583 57.917 45.2083C56.4587 46.4583 55.035 47.7778 53.6462 49.1667C53.16 48.4028 52.7781 47.5521 52.5003 46.6146C52.2225 45.6771 52.0837 44.7222 52.0837 43.75C52.0837 40.8333 53.0906 38.3681 55.1045 36.3542C57.1184 34.3403 59.5837 33.3333 62.5003 33.3333H66.667C68.2642 33.3333 69.5837 33.125 70.6253 32.7083C71.667 32.2917 72.535 31.8056 73.2295 31.25C73.9934 30.625 74.5837 29.9306 75.0003 29.1667C75.2781 33.8194 75.035 37.9861 74.2712 41.6667C73.6462 44.7917 72.4656 47.6563 70.7295 50.2604C68.9934 52.8646 66.2503 54.1667 62.5003 54.1667C61.4587 54.1667 60.4691 54.0278 59.5316 53.75C58.5941 53.4722 57.7434 53.0903 56.9795 52.6042C56.4934 53.9236 55.9378 55.6771 55.3128 57.8646C54.6878 60.0521 54.2017 62.3958 53.8545 64.8958C56.4934 65.3819 58.8198 66.2847 60.8337 67.6042C62.8475 68.9236 64.3753 70.4861 65.417 72.2917C68.9587 69.8611 71.7885 66.7014 73.9066 62.8125C76.0246 58.9236 77.0837 54.6528 77.0837 50H89.5837C89.5837 55.4861 88.542 60.625 86.4587 65.4167C84.3753 70.2083 81.5455 74.3924 77.9691 77.9688C74.3927 81.5451 70.2087 84.375 65.417 86.4583C60.6253 88.5417 55.4864 89.5833 50.0003 89.5833Z" fill="url(#paint0_linear_201_559)"/>
</g>
<defs>
<linearGradient id="paint0_linear_201_559" x1="50.0003" y1="0" x2="50.0003" y2="89.5833" gradientUnits="userSpaceOnUse">
<stop stop-color="#024A59"/>
<stop offset="1" stop-color="#0396A6"/>
</linearGradient>
</defs>
</svg>
