<svg width="80" height="80" viewBox="0 0 80 80" fill="none" xmlns="http://www.w3.org/2000/svg">
<mask id="mask0_46_65" style="mask-type:alpha" maskUnits="userSpaceOnUse" x="0" y="0" width="80" height="80">
<rect width="80" height="80" fill="url(#paint0_linear_46_65)"/>
</mask>
<g mask="url(#mask0_46_65)">
<path d="M56.6667 7.08325C60.3333 7.08325 63.4722 8.38881 66.0833 10.9999C68.6944 13.611 70 16.7499 70 20.4166C70 21.0277 69.9583 21.8471 69.875 22.8749C69.7917 23.9027 69.6667 25.0833 69.5 26.4166L64.9167 59.9999C64.6389 62.111 63.6806 63.8333 62.0417 65.1666C60.4028 66.4999 58.5278 67.1666 56.4167 67.1666C55.1389 67.1666 53.9583 66.8888 52.875 66.3332C51.7917 65.7777 50.8889 64.9999 50.1667 63.9999L41.25 50.9999C41.1389 50.7777 40.9583 50.6249 40.7083 50.5416C40.4583 50.4583 40.1944 50.4166 39.9167 50.4166C39.6944 50.4166 39.25 50.6666 38.5833 51.1666L29.9167 63.7499C29.1389 64.861 28.1806 65.7083 27.0417 66.2916C25.9028 66.8749 24.6944 67.1666 23.4167 67.1666C21.3056 67.1666 19.4444 66.486 17.8333 65.1249C16.2222 63.7638 15.2778 62.0277 15 59.9166L10.5 26.4166C10.3333 25.0833 10.2083 23.9027 10.125 22.8749C10.0417 21.8471 10 21.0277 10 20.4166C10 16.7499 11.3056 13.611 13.9167 10.9999C16.5278 8.38881 19.6667 7.08325 23.3333 7.08325C25.3333 7.08325 26.9306 7.34714 28.125 7.87492C29.3194 8.4027 30.4722 8.97214 31.5833 9.58325C32.6944 10.1944 33.875 10.7638 35.125 11.2916C36.375 11.8194 38 12.0833 40 12.0833C42 12.0833 43.625 11.8194 44.875 11.2916C46.125 10.7638 47.3056 10.1944 48.4167 9.58325C49.5278 8.97214 50.6944 8.4027 51.9167 7.87492C53.1389 7.34714 54.7222 7.08325 56.6667 7.08325ZM56.6667 13.7499C55.3889 13.7499 54.2639 14.0138 53.2917 14.5416C52.3194 15.0694 51.25 15.6388 50.0833 16.2499C48.9167 16.861 47.5556 17.4305 46 17.9583C44.4444 18.486 42.4444 18.7499 40 18.7499C37.5556 18.7499 35.5556 18.486 34 17.9583C32.4444 17.4305 31.0833 16.861 29.9167 16.2499C28.75 15.6388 27.6806 15.0694 26.7083 14.5416C25.7361 14.0138 24.6111 13.7499 23.3333 13.7499C21.5 13.7499 19.9306 14.4027 18.625 15.7083C17.3194 17.0138 16.6667 18.5833 16.6667 20.4166C16.6667 20.861 16.6944 21.4999 16.75 22.3333C16.8056 23.1666 16.9167 24.1388 17.0833 25.2499L21.6667 58.9999C21.7222 59.4444 21.9167 59.7916 22.25 60.0416C22.5833 60.2916 22.9722 60.4166 23.4167 60.4166C23.6944 60.4166 23.9444 60.361 24.1667 60.2499C24.3889 60.1388 24.5556 59.9721 24.6667 59.7499L33.0833 47.4166C33.8611 46.3055 34.8611 45.4166 36.0833 44.7499C37.3056 44.0833 38.6111 43.7499 40 43.7499C41.3889 43.7499 42.6944 44.0833 43.9167 44.7499C45.1389 45.4166 46.1389 46.3055 46.9167 47.4166L55.5 59.9999C55.6111 60.1666 55.75 60.2916 55.9167 60.3749C56.0833 60.4583 56.2778 60.4999 56.5 60.4999C56.9444 60.4999 57.3472 60.3749 57.7083 60.1249C58.0694 59.8749 58.2778 59.5277 58.3333 59.0833L62.9167 25.2499C63.0833 24.1388 63.1944 23.1666 63.25 22.3333C63.3056 21.4999 63.3333 20.861 63.3333 20.4166C63.3333 18.5833 62.6806 17.0138 61.375 15.7083C60.0694 14.4027 58.5 13.7499 56.6667 13.7499Z" fill="url(#paint1_linear_46_65)"/>
</g>
<defs>
<linearGradient id="paint0_linear_46_65" x1="9" y1="11" x2="65.5" y2="62.5" gradientUnits="userSpaceOnUse">
<stop stop-color="#0396A6"/>
<stop offset="1" stop-color="#03BF9E"/>
</linearGradient>
<linearGradient id="paint1_linear_46_65" x1="16.75" y1="15.3447" x2="59.1784" y2="53.9647" gradientUnits="userSpaceOnUse">
<stop stop-color="#0396A6"/>
<stop offset="1" stop-color="#03BF9E"/>
</linearGradient>
</defs>
</svg>
