<svg width="100" height="100" viewBox="0 0 100 100" fill="none" xmlns="http://www.w3.org/2000/svg">
<mask id="mask0_86_51" style="mask-type:alpha" maskUnits="userSpaceOnUse" x="0" y="0" width="100" height="100">
<rect width="100" height="100" fill="#D9D9D9"/>
</mask>
<g mask="url(#mask0_86_51)">
<path d="M3.95833 55.4167C2.70833 52.9167 1.73611 50.3819 1.04167 47.8125C0.347222 45.2431 0 42.6389 0 40C0 32.2222 2.63889 25.6944 7.91667 20.4167C13.1944 15.1389 19.7222 12.5 27.5 12.5C31.875 12.5 36.0417 13.4201 40 15.2604C43.9583 17.1007 47.2917 19.6528 50 22.9167C52.7083 19.6528 56.0417 17.1007 60 15.2604C63.9583 13.4201 68.125 12.5 72.5 12.5C80.2778 12.5 86.8055 15.1389 92.0833 20.4167C97.3611 25.6944 100 32.2222 100 40C100 42.6389 99.6528 45.2431 98.9583 47.8125C98.2639 50.3819 97.2917 52.9167 96.0417 55.4167C95.2778 54.0972 94.375 52.9167 93.3333 51.875C92.2917 50.8333 91.0764 50 89.6875 49.375C90.3125 47.7778 90.7986 46.2153 91.1458 44.6875C91.493 43.1597 91.6667 41.5972 91.6667 40C91.6667 34.5833 89.8264 30.0347 86.1458 26.3542C82.4653 22.6736 77.9167 20.8333 72.5 20.8333C66.875 20.8333 62.5521 22.3785 59.5312 25.4687C56.5104 28.559 53.3333 32.0139 50 35.8333C46.6667 31.9444 43.4896 28.4722 40.4688 25.4167C37.4479 22.3611 33.125 20.8333 27.5 20.8333C22.0833 20.8333 17.5347 22.6736 13.8542 26.3542C10.1736 30.0347 8.33333 34.5833 8.33333 40C8.33333 41.5972 8.50694 43.1597 8.85417 44.6875C9.20139 46.2153 9.6875 47.7778 10.3125 49.375C8.92361 50 7.70833 50.8333 6.66667 51.875C5.625 52.9167 4.72222 54.0972 3.95833 55.4167ZM0 91.6667V85.1042C0 82.0486 1.54514 79.6007 4.63542 77.7604C7.72569 75.9201 11.7361 75 16.6667 75C17.5694 75 18.4375 75.0174 19.2708 75.0521C20.1042 75.0868 20.9028 75.1736 21.6667 75.3125C20.6944 76.7014 19.9653 78.1944 19.4792 79.7917C18.9931 81.3889 18.75 83.0903 18.75 84.8958V91.6667H0ZM25 91.6667V84.8958C25 80.3819 27.309 76.7361 31.9271 73.9583C36.5451 71.1806 42.5694 69.7917 50 69.7917C57.5 69.7917 63.5417 71.1806 68.125 73.9583C72.7083 76.7361 75 80.3819 75 84.8958V91.6667H25ZM81.25 91.6667V84.8958C81.25 83.0903 81.0243 81.3889 80.5729 79.7917C80.1215 78.1944 79.4444 76.7014 78.5417 75.3125C79.3056 75.1736 80.0868 75.0868 80.8854 75.0521C81.684 75.0174 82.5 75 83.3333 75C88.3333 75 92.3611 75.9201 95.4167 77.7604C98.4722 79.6007 100 82.0486 100 85.1042V91.6667H81.25ZM50 78.125C46.0417 78.125 42.5 78.6458 39.375 79.6875C36.25 80.7292 34.4097 81.9444 33.8542 83.3333H66.25C65.625 81.9444 63.7674 80.7292 60.6771 79.6875C57.5868 78.6458 54.0278 78.125 50 78.125ZM16.6667 70.8333C14.375 70.8333 12.4132 70.0174 10.7812 68.3854C9.14931 66.7535 8.33333 64.7917 8.33333 62.5C8.33333 60.1389 9.14931 58.1597 10.7812 56.5625C12.4132 54.9653 14.375 54.1667 16.6667 54.1667C19.0278 54.1667 21.0069 54.9653 22.6042 56.5625C24.2014 58.1597 25 60.1389 25 62.5C25 64.7917 24.2014 66.7535 22.6042 68.3854C21.0069 70.0174 19.0278 70.8333 16.6667 70.8333ZM83.3333 70.8333C81.0417 70.8333 79.0799 70.0174 77.4479 68.3854C75.816 66.7535 75 64.7917 75 62.5C75 60.1389 75.816 58.1597 77.4479 56.5625C79.0799 54.9653 81.0417 54.1667 83.3333 54.1667C85.6944 54.1667 87.6736 54.9653 89.2708 56.5625C90.8681 58.1597 91.6667 60.1389 91.6667 62.5C91.6667 64.7917 90.8681 66.7535 89.2708 68.3854C87.6736 70.0174 85.6944 70.8333 83.3333 70.8333ZM50 66.6667C46.5278 66.6667 43.5764 65.4514 41.1458 63.0208C38.7153 60.5903 37.5 57.6389 37.5 54.1667C37.5 50.625 38.7153 47.6562 41.1458 45.2604C43.5764 42.8646 46.5278 41.6667 50 41.6667C53.5417 41.6667 56.5104 42.8646 58.9062 45.2604C61.3021 47.6562 62.5 50.625 62.5 54.1667C62.5 57.6389 61.3021 60.5903 58.9062 63.0208C56.5104 65.4514 53.5417 66.6667 50 66.6667ZM50 50C48.8194 50 47.8299 50.3993 47.0312 51.1979C46.2326 51.9965 45.8333 52.9861 45.8333 54.1667C45.8333 55.3472 46.2326 56.3368 47.0312 57.1354C47.8299 57.934 48.8194 58.3333 50 58.3333C51.1806 58.3333 52.1701 57.934 52.9688 57.1354C53.7674 56.3368 54.1667 55.3472 54.1667 54.1667C54.1667 52.9861 53.7674 51.9965 52.9688 51.1979C52.1701 50.3993 51.1806 50 50 50Z" fill="url(#paint0_linear_86_51)"/>
</g>
<defs>
<linearGradient id="paint0_linear_86_51" x1="50" y1="12.5" x2="50" y2="91.6667" gradientUnits="userSpaceOnUse">
<stop stop-color="#024A59"/>
<stop offset="1" stop-color="#0396A6"/>
</linearGradient>
</defs>
</svg>
