<svg width="60" height="61" viewBox="0 0 60 61" fill="none" xmlns="http://www.w3.org/2000/svg">
<mask id="mask0_377_608" style="mask-type:alpha" maskUnits="userSpaceOnUse" x="0" y="0" width="60" height="61">
<rect y="0.5" width="60" height="60" fill="#D9D9D9"/>
</mask>
<g mask="url(#mask0_377_608)">
<path d="M27.375 46.375L18.5 37.5L22.125 33.875L27.375 39.125L37.875 28.625L41.5 32.25L27.375 46.375ZM12.5 55.5C11.125 55.5 9.94792 55.0104 8.96875 54.0313C7.98958 53.0521 7.5 51.875 7.5 50.5V15.5C7.5 14.125 7.98958 12.9479 8.96875 11.9688C9.94792 10.9896 11.125 10.5 12.5 10.5H15V5.5H20V10.5H40V5.5H45V10.5H47.5C48.875 10.5 50.0521 10.9896 51.0313 11.9688C52.0104 12.9479 52.5 14.125 52.5 15.5V50.5C52.5 51.875 52.0104 53.0521 51.0313 54.0313C50.0521 55.0104 48.875 55.5 47.5 55.5H12.5ZM12.5 50.5H47.5V25.5H12.5V50.5ZM12.5 20.5H47.5V15.5H12.5V20.5Z" fill="#024A59"/>
</g>
</svg>
