<svg width="80" height="80" viewBox="0 0 80 80" fill="none" xmlns="http://www.w3.org/2000/svg">
<mask id="mask0_51_28" style="mask-type:alpha" maskUnits="userSpaceOnUse" x="0" y="0" width="80" height="80">
<rect width="80" height="80" fill="#D9D9D9"/>
</mask>
<g mask="url(#mask0_51_28)">
<path d="M51.6666 36.6667C53.0555 36.6667 54.2361 36.1806 55.2083 35.2084C56.1805 34.2362 56.6666 33.0556 56.6666 31.6667C56.6666 30.2779 56.1805 29.0973 55.2083 28.1251C54.2361 27.1529 53.0555 26.6667 51.6666 26.6667C50.2777 26.6667 49.0972 27.1529 48.125 28.1251C47.1527 29.0973 46.6666 30.2779 46.6666 31.6667C46.6666 33.0556 47.1527 34.2362 48.125 35.2084C49.0972 36.1806 50.2777 36.6667 51.6666 36.6667ZM28.3333 36.6667C29.7222 36.6667 30.9027 36.1806 31.875 35.2084C32.8472 34.2362 33.3333 33.0556 33.3333 31.6667C33.3333 30.2779 32.8472 29.0973 31.875 28.1251C30.9027 27.1529 29.7222 26.6667 28.3333 26.6667C26.9444 26.6667 25.7638 27.1529 24.7916 28.1251C23.8194 29.0973 23.3333 30.2779 23.3333 31.6667C23.3333 33.0556 23.8194 34.2362 24.7916 35.2084C25.7638 36.1806 26.9444 36.6667 28.3333 36.6667ZM40 58.3334C43.7777 58.3334 47.2083 57.264 50.2916 55.1251C53.375 52.9862 55.6111 50.1668 57 46.6667H23C24.3888 50.1668 26.625 52.9862 29.7083 55.1251C32.7916 57.264 36.2222 58.3334 40 58.3334ZM40 73.3334C35.3888 73.3334 31.0555 72.4584 27 70.7084C22.9444 68.9584 19.4166 66.5834 16.4166 63.5834C13.4166 60.5834 11.0416 57.0556 9.29163 53.0001C7.54163 48.9445 6.66663 44.6112 6.66663 40.0001C6.66663 35.389 7.54163 31.0556 9.29163 27.0001C11.0416 22.9445 13.4166 19.4167 16.4166 16.4167C19.4166 13.4167 22.9444 11.0417 27 9.29175C31.0555 7.54175 35.3888 6.66675 40 6.66675C44.6111 6.66675 48.9444 7.54175 53 9.29175C57.0555 11.0417 60.5833 13.4167 63.5833 16.4167C66.5833 19.4167 68.9583 22.9445 70.7083 27.0001C72.4583 31.0556 73.3333 35.389 73.3333 40.0001C73.3333 44.6112 72.4583 48.9445 70.7083 53.0001C68.9583 57.0556 66.5833 60.5834 63.5833 63.5834C60.5833 66.5834 57.0555 68.9584 53 70.7084C48.9444 72.4584 44.6111 73.3334 40 73.3334ZM40 66.6668C47.4444 66.6668 53.75 64.0834 58.9166 58.9168C64.0833 53.7501 66.6666 47.4445 66.6666 40.0001C66.6666 32.5556 64.0833 26.2501 58.9166 21.0834C53.75 15.9167 47.4444 13.3334 40 13.3334C32.5555 13.3334 26.25 15.9167 21.0833 21.0834C15.9166 26.2501 13.3333 32.5556 13.3333 40.0001C13.3333 47.4445 15.9166 53.7501 21.0833 58.9168C26.25 64.0834 32.5555 66.6668 40 66.6668Z" fill="url(#paint0_linear_51_28)"/>
</g>
<defs>
<linearGradient id="paint0_linear_51_28" x1="40" y1="6.66675" x2="40" y2="73.3334" gradientUnits="userSpaceOnUse">
<stop stop-color="#0396A6"/>
<stop offset="0.614583" stop-color="#03BF9E"/>
</linearGradient>
</defs>
</svg>
