<svg width="80" height="80" viewBox="0 0 80 80" fill="none" xmlns="http://www.w3.org/2000/svg">
    <mask id="mask0_51_47" style="mask-type:alpha" maskUnits="userSpaceOnUse" x="0" y="0" width="80" height="80">
        <rect width="80" height="80" fill="url(#paint0_linear_51_47)"/>
    </mask>

    <g mask="url(#mask0_51_47)">
        <path d="M16.6665 73.3333V43.3333H23.3332V27.9999L11.9999 16.6666L25.3332 3.33325L29.9999 7.99992L21.3332 16.6666L29.9999 25.3333V43.3333H36.6665V73.3333H16.6665ZM43.3332 73.3333V43.3333H49.9999V32.9166C47.111 32.1388 44.7221 30.5833 42.8332 28.2499C40.9443 25.9166 39.9999 23.1666 39.9999 19.9999C39.9999 16.3333 41.3054 13.1944 43.9165 10.5833C46.5277 7.97214 49.6665 6.66659 53.3332 6.66659C56.9999 6.66659 60.1388 7.97214 62.7499 10.5833C65.361 13.1944 66.6665 16.3333 66.6665 19.9999C66.6665 23.1666 65.7221 25.9166 63.8332 28.2499C61.9443 30.5833 59.5554 32.1388 56.6665 32.9166V43.3333H63.3332V73.3333H43.3332ZM53.3332 26.6666C55.1665 26.6666 56.736 26.0138 58.0415 24.7083C59.3471 23.4027 59.9999 21.8333 59.9999 19.9999C59.9999 18.1666 59.3471 16.5971 58.0415 15.2916C56.736 13.986 55.1665 13.3333 53.3332 13.3333C51.4999 13.3333 49.9304 13.986 48.6249 15.2916C47.3193 16.5971 46.6665 18.1666 46.6665 19.9999C46.6665 21.8333 47.3193 23.4027 48.6249 24.7083C49.9304 26.0138 51.4999 26.6666 53.3332 26.6666ZM23.3332 66.6666H29.9999V49.9999H23.3332V66.6666ZM49.9999 66.6666H56.6665V49.9999H49.9999V66.6666Z" fill="url(#paint1_linear_51_47)"/>
    </g>

    <defs>
        <linearGradient id="paint0_linear_51_47" x1="3.5" y1="3" x2="68.5" y2="76" gradientUnits="userSpaceOnUse">
            <stop stop-color="#0396A6"/>
            <stop offset="1" stop-color="#03BF9E"/>
        </linearGradient>

        <linearGradient id="paint1_linear_51_47" x1="14.3915" y1="5.95825" x2="71.161" y2="55.749" gradientUnits="userSpaceOnUse">
            <stop stop-color="#0396A6"/>
            <stop offset="1" stop-color="#03BF9E"/>
        </linearGradient>
    </defs>
</svg>
