<svg width="80" height="80" viewBox="0 0 80 80" fill="none" xmlns="http://www.w3.org/2000/svg">
<mask id="mask0_51_22" style="mask-type:alpha" maskUnits="userSpaceOnUse" x="0" y="0" width="80" height="80">
<rect width="80" height="80" fill="url(#paint0_linear_51_22)"/>
</mask>
<g mask="url(#mask0_51_22)">
<path d="M45 73.3334C39 73.3334 33.8888 71.2223 29.6666 67.0001C25.4444 62.7779 23.3333 57.6668 23.3333 51.6668V49.7501C18.5555 48.9723 14.5833 46.7362 11.4166 43.0418C8.24996 39.3473 6.66663 35.0001 6.66663 30.0001V10.0001H16.6666V6.66675H23.3333V20.0001H16.6666V16.6667H13.3333V30.0001C13.3333 33.6667 14.6388 36.8056 17.25 39.4167C19.8611 42.0279 23 43.3334 26.6666 43.3334C30.3333 43.3334 33.4722 42.0279 36.0833 39.4167C38.6944 36.8056 40 33.6667 40 30.0001V16.6667H36.6666V20.0001H30V6.66675H36.6666V10.0001H46.6666V30.0001C46.6666 35.0001 45.0833 39.3473 41.9166 43.0418C38.75 46.7362 34.7777 48.9723 30 49.7501V51.6668C30 55.8334 31.4583 59.3751 34.375 62.2918C37.2916 65.2084 40.8333 66.6668 45 66.6668C49.1666 66.6668 52.7083 65.2084 55.625 62.2918C58.5416 59.3751 60 55.8334 60 51.6668V46.0834C58.0555 45.4167 56.4583 44.2223 55.2083 42.5001C53.9583 40.7779 53.3333 38.8334 53.3333 36.6667C53.3333 33.889 54.3055 31.5279 56.25 29.5834C58.1944 27.639 60.5555 26.6667 63.3333 26.6667C66.1111 26.6667 68.4722 27.639 70.4166 29.5834C72.3611 31.5279 73.3333 33.889 73.3333 36.6667C73.3333 38.8334 72.7083 40.7779 71.4583 42.5001C70.2083 44.2223 68.6111 45.4167 66.6666 46.0834V51.6668C66.6666 57.6668 64.5555 62.7779 60.3333 67.0001C56.1111 71.2223 51 73.3334 45 73.3334ZM63.3333 40.0001C64.2777 40.0001 65.0694 39.6806 65.7083 39.0418C66.3472 38.4029 66.6666 37.6112 66.6666 36.6667C66.6666 35.7223 66.3472 34.9306 65.7083 34.2917C65.0694 33.6529 64.2777 33.3334 63.3333 33.3334C62.3889 33.3334 61.5972 33.6529 60.9583 34.2917C60.3194 34.9306 60 35.7223 60 36.6667C60 37.6112 60.3194 38.4029 60.9583 39.0418C61.5972 39.6806 62.3889 40.0001 63.3333 40.0001Z" fill="url(#paint1_linear_51_22)"/>
</g>
<defs>
<linearGradient id="paint0_linear_51_22" x1="6" y1="8.5" x2="70.5" y2="74.5" gradientUnits="userSpaceOnUse">
<stop stop-color="#024959"/>
<stop offset="0.777496" stop-color="#024959"/>
</linearGradient>
<linearGradient id="paint1_linear_51_22" x1="11.6666" y1="13.7501" x2="65.4166" y2="68.7501" gradientUnits="userSpaceOnUse">
<stop stop-color="#024959"/>
<stop offset="0.777496" stop-color="#024959"/>
</linearGradient>
</defs>
</svg>
